<!-- Generated by IcoMoon.io -->
<svg version="1.1" xmlns="http://www.w3.org/2000/svg" width="100" height="24" viewBox="0 0 100 24">
<title>hearthis_logo</title>
<path d="M12.84 6.54c-1.14 0.69-1.86 2.28-1.59 3.48 0.18 0.96 0.21 1.2 0.060 3.78-0.060 1.32 0.060 1.59 0.93 2.46l0.96 0.99 3.75 0.090 3.75 0.12-1.47-1.53c-1.47-1.5-1.53-1.53-3.3-1.53-1.62 0-1.83-0.060-1.83-0.6 0-0.48 0.24-0.57 1.74-0.66l1.71-0.090v-2.7l-1.65-0.15c-1.41-0.12-1.65-0.24-1.65-0.75 0-0.54 0.24-0.6 1.92-0.69 1.83-0.090 1.98-0.15 3.21-1.44l1.29-1.32h-3.51c-2.76 0-3.69 0.12-4.32 0.54zM0.3 11.85v5.55h2.7v-4.2h5.1v4.2h2.7v-11.1h-2.67l-0.090 2.010-0.090 2.040h-4.8l-0.090-2.040-0.090-2.010h-2.67v5.55z"></path>
<path d="M21.15 7.020c-3.6 2.16-3.51 7.74 0.15 9.63 0.42 0.21 1.59 0.48 2.64 0.6l1.86 0.21v-1.38c0-1.35-0.030-1.38-0.9-1.38-3.18 0-4.74-2.79-2.73-4.83 1.17-1.17 2.4-1.17 3.69 0 0.99 0.87 0.99 0.87 1.080 4.2l0.12 3.33h2.7l-0.090-3.69c-0.12-3.45-0.18-3.78-0.96-4.95-1.59-2.43-5.070-3.24-7.56-1.74zM32.64 7.17c-2.1 1.35-2.64 2.73-2.64 6.87v3.36h2.64l0.12-3.33 0.090-3.33 0.99-0.87c0.87-0.78 1.17-0.87 3.060-0.87h2.1v8.4h2.7v-8.4h0.84c0.6 0 1.23-0.39 2.16-1.35l1.32-1.35h-12l-1.38 0.87z"></path>
<path d="M45.39 7.56l-1.29 1.32v8.52h2.7v-4.2h4.8v4.2h2.7v-11.1h-2.7v4.2h-4.77l-0.090-2.1-0.090-2.13-1.26 1.29zM54.9 11.85v5.55h2.7v-11.1h-2.7v5.55zM59.22 7.32c-0.78 0.78-1.020 1.26-1.020 2.1 0 2.52 1.5 3.78 4.5 3.78 1.38 0 1.86 0.12 2.010 0.48 0.3 0.78-0.48 1.020-3.42 1.020h-2.79v2.76l3.57-0.12c3.51-0.090 3.63-0.12 4.5-0.96 1.14-1.11 1.44-2.43 0.84-3.87-0.6-1.41-1.83-2.010-4.050-2.010-1.2 0-1.92-0.15-2.16-0.45-0.69-0.81 0-1.050 3.030-1.050h2.97v-2.7h-6.96l-1.020 1.020zM73.65 6.78c-1.35 0.69-1.98 1.35-2.58 2.67-1.080 2.34-0.39 5.28 1.53 6.72 0.84 0.6 3.36 1.23 5.040 1.23 0.63 0 0.66-0.12 0.66-2.1v-2.1h-1.17c-1.020 0-1.14 0.090-1.020 0.6 0.24 0.87-0.84 0.78-1.89-0.12-1.26-1.050-1.17-2.67 0.15-3.84 0.84-0.75 1.17-0.87 2.1-0.72 0.63 0.090 1.35 0.48 1.77 0.93 0.6 0.72 0.66 1.080 0.66 4.080v3.27h2.7v-3.6c0-2.55-0.12-3.87-0.42-4.44-0.57-1.080-1.95-2.34-2.97-2.73-1.23-0.48-3.51-0.39-4.56 0.15z"></path>
<path d="M80.58 7.65c0.87 0.93 1.47 1.35 2.040 1.35h0.78v8.4h2.7v-4.2c0-3.99 0.030-4.2 0.6-4.2 0.33 0 1.2-0.6 1.92-1.35l1.35-1.35h-10.65l1.26 1.35z"></path>
<path d="M90.21 6.9c-2.49 1.35-3.54 4.71-2.25 7.17 1.53 2.97 4.71 4.11 7.59 2.73 3.69-1.8 4.2-6.96 0.9-9.48-1.53-1.14-4.5-1.35-6.24-0.42zM93.15 9.27c1.86 0.87 3.15 2.73 3.15 4.56 0 1.020-0.84 0.6-1.020-0.48-0.27-1.41-1.74-3.030-3.12-3.45-0.6-0.18-1.29-0.39-1.5-0.48-0.6-0.18-0.12-0.72 0.63-0.72 0.36 0 1.2 0.27 1.86 0.57zM92.1 10.98c1.23 0.51 1.95 1.41 2.13 2.79 0.060 0.39-0.060 0.78-0.24 0.84-0.24 0.090-0.39-0.15-0.39-0.6 0-1.020-1.050-2.25-2.16-2.55-0.54-0.12-0.99-0.39-1.080-0.6-0.15-0.48 0.3-0.45 1.74 0.12zM68.61 15.48c-0.75 0.75 0.24 2.1 1.29 1.77 0.96-0.3 0.72-1.77-0.3-1.89-0.42-0.060-0.87 0-0.99 0.12z"></path>
</svg>
