<?xml version="1.0" encoding="UTF-8" standalone="no"?>
<svg
   xmlns:dc="http://purl.org/dc/elements/1.1/"
   xmlns:cc="http://creativecommons.org/ns#"
   xmlns:rdf="http://www.w3.org/1999/02/22-rdf-syntax-ns#"
   xmlns:svg="http://www.w3.org/2000/svg"
   xmlns="http://www.w3.org/2000/svg"
   xmlns:sodipodi="http://sodipodi.sourceforge.net/DTD/sodipodi-0.dtd"
   xmlns:inkscape="http://www.inkscape.org/namespaces/inkscape"
   version="1.1"
   width="100"
   height="24"
   viewBox="0 0 100 24"
   id="svg14"
   sodipodi:docname="hearthis_logo.svg"
   inkscape:version="1.0.2-2 (e86c870879, 2021-01-15)">
  <metadata
     id="metadata20">
    <rdf:RDF>
      <cc:Work
         rdf:about="">
        <dc:format>image/svg+xml</dc:format>
        <dc:type
           rdf:resource="http://purl.org/dc/dcmitype/StillImage" />
        <dc:title>hearthis_logo</dc:title>
      </cc:Work>
    </rdf:RDF>
  </metadata>
  <defs
     id="defs18" />
  <sodipodi:namedview
     pagecolor="#ffffff"
     bordercolor="#666666"
     borderopacity="1"
     objecttolerance="10"
     gridtolerance="10"
     guidetolerance="10"
     inkscape:pageopacity="0"
     inkscape:pageshadow="2"
     inkscape:window-width="1920"
     inkscape:window-height="1017"
     id="namedview16"
     showgrid="false"
     inkscape:zoom="10.57"
     inkscape:cx="50"
     inkscape:cy="12"
     inkscape:window-x="-8"
     inkscape:window-y="-8"
     inkscape:window-maximized="1"
     inkscape:current-layer="svg14" />
  <title
     id="title2">hearthis_logo</title>
  <path
     id="path4"
     d="M 17.160156 6 C 14.400156 6 13.469844 6.1190625 12.839844 6.5390625 C 11.699844 7.2290625 10.98 8.8195313 11.25 10.019531 C 11.43 10.979531 11.460547 11.220781 11.310547 13.800781 C 11.250547 15.120781 11.370234 15.389766 12.240234 16.259766 L 13.199219 17.25 L 16.949219 17.339844 L 20.699219 17.460938 L 19.230469 15.929688 C 17.760469 14.429688 17.699688 14.400391 15.929688 14.400391 C 14.309687 14.400391 14.099609 14.340781 14.099609 13.800781 C 14.099609 13.320781 14.339844 13.230625 15.839844 13.140625 L 17.550781 13.050781 L 17.550781 10.349609 L 15.900391 10.199219 C 14.490391 10.079219 14.25 9.9592187 14.25 9.4492188 C 14.25 8.9092187 14.489922 8.8497656 16.169922 8.7597656 C 17.999922 8.6697656 18.150859 8.6103125 19.380859 7.3203125 L 20.669922 6 L 17.160156 6 z M 46.650391 6.2695312 L 45.390625 7.5605469 L 44.099609 8.8808594 L 44.099609 17.400391 L 46.800781 17.400391 L 46.800781 13.199219 L 51.599609 13.199219 L 51.599609 17.400391 L 54.300781 17.400391 L 54.300781 6.3007812 L 51.599609 6.3007812 L 51.599609 10.5 L 46.830078 10.5 L 46.740234 8.4003906 L 46.650391 6.2695312 z M 24.216797 6.2714844 C 23.156484 6.2206836 22.084141 6.4570313 21.150391 7.0195312 C 17.550391 9.1795313 17.640781 14.760391 21.300781 16.650391 C 21.720781 16.860391 22.889453 17.13 23.939453 17.25 L 25.800781 17.460938 L 25.800781 16.080078 C 25.800781 14.730078 25.770391 14.699219 24.900391 14.699219 C 21.720391 14.699219 20.159922 11.909141 22.169922 9.8691406 C 23.339922 8.6991406 24.569375 8.6991406 25.859375 9.8691406 C 26.849375 10.739141 26.849453 10.740313 26.939453 14.070312 L 27.060547 17.400391 L 29.759766 17.400391 L 29.669922 13.710938 C 29.549922 10.260937 29.490938 9.9297656 28.710938 8.7597656 C 27.717188 7.2410156 25.983984 6.3561523 24.216797 6.2714844 z M 0.30078125 6.3007812 L 0.30078125 11.849609 L 0.30078125 17.400391 L 3 17.400391 L 3 13.199219 L 8.0996094 13.199219 L 8.0996094 17.400391 L 10.800781 17.400391 L 10.800781 6.3007812 L 8.1308594 6.3007812 L 8.0390625 8.3105469 L 7.9492188 10.349609 L 3.1503906 10.349609 L 3.0605469 8.3105469 L 2.9707031 6.3007812 L 0.30078125 6.3007812 z M 34.019531 6.3007812 L 32.640625 7.1699219 C 30.540625 8.5199219 30 9.8990625 30 14.039062 L 30 17.400391 L 32.640625 17.400391 L 32.759766 14.070312 L 32.849609 10.740234 L 33.839844 9.8691406 C 34.709844 9.0891406 35.010391 9 36.900391 9 L 39 9 L 39 17.400391 L 41.699219 17.400391 L 41.699219 9 L 42.539062 9 C 43.139063 9 43.769219 8.6103906 44.699219 7.6503906 L 46.019531 6.3007812 L 34.019531 6.3007812 z M 54.900391 6.3007812 L 54.900391 11.849609 L 54.900391 17.400391 L 57.599609 17.400391 L 57.599609 6.3007812 L 54.900391 6.3007812 z M 60.240234 6.3007812 L 59.220703 7.3203125 C 58.440703 8.1003125 58.199219 8.5799219 58.199219 9.4199219 C 58.199219 11.939922 59.699219 13.199219 62.699219 13.199219 C 64.079219 13.199219 64.560938 13.319687 64.710938 13.679688 C 65.010937 14.459687 64.229063 14.699219 61.289062 14.699219 L 58.5 14.699219 L 58.5 17.460938 L 62.070312 17.339844 C 65.580313 17.249844 65.700312 17.220859 66.570312 16.380859 C 67.710313 15.270859 68.010156 13.949766 67.410156 12.509766 C 66.810156 11.099766 65.579375 10.5 63.359375 10.5 C 62.159375 10.5 61.439219 10.350781 61.199219 10.050781 C 60.509219 9.2407812 61.200469 9 64.230469 9 L 67.199219 9 L 67.199219 6.3007812 L 60.240234 6.3007812 z M 79.320312 6.3007812 L 80.580078 7.6503906 C 81.450078 8.5803906 82.049141 9 82.619141 9 L 83.400391 9 L 83.400391 17.400391 L 86.099609 17.400391 L 86.099609 13.199219 C 86.099609 9.2092187 86.129219 9 86.699219 9 C 87.029219 9 87.899141 8.4003906 88.619141 7.6503906 L 89.970703 6.3007812 L 79.320312 6.3007812 z M 75.863281 6.3222656 C 75.008281 6.3522656 74.175391 6.5092969 73.650391 6.7792969 C 72.300391 7.4692969 71.670312 8.1292188 71.070312 9.4492188 C 69.990313 11.789219 70.679609 14.729922 72.599609 16.169922 C 73.439609 16.769922 75.960625 17.400391 77.640625 17.400391 C 78.270625 17.400391 78.300781 17.280781 78.300781 15.300781 L 78.300781 13.199219 L 77.130859 13.199219 C 76.110859 13.199219 75.989375 13.290781 76.109375 13.800781 C 76.349375 14.670781 75.270703 14.579688 74.220703 13.679688 C 72.960703 12.629687 73.049141 11.009844 74.369141 9.8398438 C 75.209141 9.0898438 75.540703 8.9691406 76.470703 9.1191406 C 77.100703 9.2091406 77.820234 9.6007813 78.240234 10.050781 C 78.840234 10.770781 78.900391 11.130859 78.900391 14.130859 L 78.900391 17.400391 L 81.599609 17.400391 L 81.599609 13.800781 C 81.599609 11.250781 81.479687 9.929375 81.179688 9.359375 C 80.609688 8.279375 79.230938 7.0208594 78.210938 6.6308594 C 77.595937 6.3908594 76.718281 6.2922656 75.863281 6.3222656 z M 92.544922 6.3242188 C 91.687285 6.363418 90.863438 6.5516406 90.210938 6.9003906 C 87.720938 8.2503906 86.670937 11.610313 87.960938 14.070312 C 89.490938 17.040312 92.670781 18.180781 95.550781 16.800781 C 99.240781 15.000781 99.749219 9.8403125 96.449219 7.3203125 C 95.492969 6.6078125 93.974316 6.2588867 92.544922 6.3242188 z M 91.289062 8.6992188 C 91.649062 8.6992188 92.490391 8.9695313 93.150391 9.2695312 C 95.010391 10.139531 96.300781 12.000078 96.300781 13.830078 C 96.300781 14.850078 95.459297 14.429609 95.279297 13.349609 C 95.009297 11.939609 93.540156 10.320391 92.160156 9.9003906 C 91.560156 9.7203906 90.870156 9.5099219 90.660156 9.4199219 C 90.060156 9.2399219 90.539062 8.6992187 91.289062 8.6992188 z M 90.632812 10.525391 C 90.906562 10.544141 91.379609 10.695469 92.099609 10.980469 C 93.329609 11.490469 94.050469 12.389531 94.230469 13.769531 C 94.290469 14.159531 94.170234 14.549375 93.990234 14.609375 C 93.750234 14.699375 93.599609 14.459766 93.599609 14.009766 C 93.599609 12.989766 92.549453 11.760938 91.439453 11.460938 C 90.899453 11.340938 90.449375 11.069375 90.359375 10.859375 C 90.284375 10.619375 90.359063 10.506641 90.632812 10.525391 z M 68.992188 15.351562 C 68.812187 15.374062 68.669375 15.420469 68.609375 15.480469 C 67.859375 16.230469 68.850391 17.58 69.900391 17.25 C 70.860391 16.95 70.619609 15.479375 69.599609 15.359375 C 69.389609 15.329375 69.172188 15.329063 68.992188 15.351562 z " />
</svg>
