<?xml version="1.0" standalone="no"?>
<!DOCTYPE svg PUBLIC "-//W3C//DTD SVG 20010904//EN"
 "http://www.w3.org/TR/2001/REC-SVG-20010904/DTD/svg10.dtd">
<svg version="1.0" xmlns="http://www.w3.org/2000/svg"
 width="333.000000pt" height="80.000000pt" viewBox="0 0 333.000000 80.000000"
 preserveAspectRatio="xMidYMid meet">

<g transform="translate(0.000000,80.000000) scale(0.100000,-0.100000)"
fill="#000000" stroke="none">
<path d="M428 582 c-38 -23 -62 -76 -53 -116 6 -32 7 -40 2 -126 -2 -44 2 -53
31 -82 l32 -33 125 -3 125 -4 -49 51 c-49 50 -51 51 -110 51 -54 0 -61 2 -61
20 0 16 8 19 58 22 l57 3 0 45 0 45 -55 5 c-47 4 -55 8 -55 25 0 18 8 20 64
23 61 3 66 5 107 48 l43 44 -117 0 c-92 0 -123 -4 -144 -18z"/>
<path d="M10 405 l0 -185 45 0 45 0 0 70 0 70 85 0 85 0 0 -70 0 -70 45 0 45
0 0 185 0 185 -45 0 -44 0 -3 -67 -3 -68 -80 0 -80 0 -3 68 -3 67 -44 0 -45 0
0 -185z"/>
<path d="M705 566 c-120 -72 -117 -258 5 -321 14 -7 53 -16 88 -20 l62 -7 0
46 c0 45 -1 46 -30 46 -106 0 -158 93 -91 161 39 39 80 39 123 0 33 -29 33
-29 36 -140 l4 -111 45 0 45 0 -3 123 c-4 115 -6 126 -32 165 -53 81 -169 108
-252 58z"/>
<path d="M1088 561 c-70 -45 -88 -91 -88 -229 l0 -112 44 0 44 0 4 111 3 111
33 29 c29 26 39 29 102 29 l70 0 0 -140 0 -140 45 0 45 0 0 140 0 140 28 0
c20 0 41 13 72 45 l44 45 -200 0 -200 0 -46 -29z"/>
<path d="M1513 548 l-43 -44 0 -142 0 -142 45 0 45 0 0 70 0 70 80 0 80 0 0
-70 0 -70 45 0 45 0 0 185 0 185 -45 0 -45 0 0 -70 0 -70 -80 0 -79 0 -3 70
-3 71 -42 -43z"/>
<path d="M1830 405 l0 -185 45 0 45 0 0 185 0 185 -45 0 -45 0 0 -185z"/>
<path d="M1974 556 c-26 -26 -34 -42 -34 -70 0 -84 50 -126 150 -126 46 0 62
-4 67 -16 10 -26 -16 -34 -114 -34 l-93 0 0 -46 0 -46 119 4 c117 3 121 4 150
32 38 37 48 81 28 129 -20 47 -61 67 -135 67 -40 0 -64 5 -72 15 -23 27 0 35
101 35 l99 0 0 45 0 45 -116 0 -116 0 -34 -34z"/>
<path d="M2455 574 c-45 -23 -66 -45 -86 -89 -36 -78 -13 -176 51 -224 28 -20
112 -41 168 -41 21 0 22 4 22 70 l0 70 -39 0 c-34 0 -38 -3 -34 -20 8 -29 -28
-26 -63 4 -42 35 -39 89 5 128 28 25 39 29 70 24 21 -3 45 -16 59 -31 20 -24
22 -36 22 -136 l0 -109 45 0 45 0 0 120 c0 85 -4 129 -14 148 -19 36 -65 78
-99 91 -41 16 -117 13 -152 -5z"/>
<path d="M2686 545 c29 -31 49 -45 68 -45 l26 0 0 -140 0 -140 45 0 45 0 0
140 c0 133 1 140 20 140 11 0 40 20 64 45 l45 45 -177 0 -178 0 42 -45z"/>
<path d="M3007 570 c-83 -45 -118 -157 -75 -239 51 -99 157 -137 253 -91 123
60 140 232 30 316 -51 38 -150 45 -208 14z m98 -79 c62 -29 105 -91 105 -152
0 -34 -28 -20 -34 16 -9 47 -58 101 -104 115 -20 6 -43 13 -50 16 -20 6 -4 24
21 24 12 0 40 -9 62 -19z m-35 -57 c41 -17 65 -47 71 -93 2 -13 -2 -26 -8 -28
-8 -3 -13 5 -13 20 0 34 -35 75 -72 85 -18 4 -33 13 -36 20 -5 16 10 15 58 -4z"/>
<path d="M2287 284 c-25 -25 8 -70 43 -59 32 10 24 59 -10 63 -14 2 -29 0 -33
-4z"/>
</g>
</svg>
