<?xml version="1.0" encoding="UTF-8" standalone="no"?>
<svg
   xmlns:dc="http://purl.org/dc/elements/1.1/"
   xmlns:cc="http://creativecommons.org/ns#"
   xmlns:rdf="http://www.w3.org/1999/02/22-rdf-syntax-ns#"
   xmlns:svg="http://www.w3.org/2000/svg"
   xmlns="http://www.w3.org/2000/svg"
   xmlns:sodipodi="http://sodipodi.sourceforge.net/DTD/sodipodi-0.dtd"
   xmlns:inkscape="http://www.inkscape.org/namespaces/inkscape"
   version="1.0"
   width="6.3509007mm"
   height="0.74003989mm"
   viewBox="0 0 24.000018 2.7970011e-05"
   preserveAspectRatio="xMidYMid meet"
   id="svg26"
   sodipodi:docname="hearthis_logo.svg"
   inkscape:version="1.0.2-2 (e86c870879, 2021-01-15)">
  <title
     id="title19">hearthis_logo</title>
  <metadata
     id="metadata32">
    <rdf:RDF>
      <cc:Work
         rdf:about="">
        <dc:format>image/svg+xml</dc:format>
        <dc:type
           rdf:resource="http://purl.org/dc/dcmitype/StillImage" />
        <dc:title>hearthis_logo</dc:title>
      </cc:Work>
    </rdf:RDF>
  </metadata>
  <defs
     id="defs30" />
  <sodipodi:namedview
     pagecolor="#ffffff"
     bordercolor="#666666"
     borderopacity="1"
     objecttolerance="10"
     gridtolerance="10"
     guidetolerance="10"
     inkscape:pageopacity="0"
     inkscape:pageshadow="2"
     inkscape:window-width="1920"
     inkscape:window-height="1017"
     id="namedview28"
     showgrid="false"
     inkscape:showpageshadow="false"
     units="mm"
     inkscape:zoom="13.46688"
     inkscape:cx="46.328984"
     inkscape:cy="3.6116673"
     inkscape:window-x="-8"
     inkscape:window-y="-8"
     inkscape:window-maximized="1"
     inkscape:current-layer="svg26"
     inkscape:document-rotation="0" />
  <g
     transform="matrix(0.00732096,0,0,-0.00732096,-0.0732096,2.9942867)"
     fill="#000000"
     stroke="none"
     id="g24">
    <path
       id="path22"
       d="m 2287,284 c -25,-25 8,-70 43,-59 32,10 24,59 -10,63 -14,2 -29,0 -33,-4 z m 720,286 c -83,-45 -118,-157 -75,-239 51,-99 157,-137 253,-91 123,60 140,232 30,316 -51,38 -150,45 -208,14 z m 98,-79 c 62,-29 105,-91 105,-152 0,-34 -28,-20 -34,16 -9,47 -58,101 -104,115 -20,6 -43,13 -50,16 -20,6 -4,24 21,24 12,0 40,-9 62,-19 z m -35,-57 c 41,-17 65,-47 71,-93 2,-13 -2,-26 -8,-28 -8,-3 -13,5 -13,20 0,34 -35,75 -72,85 -18,4 -33,13 -36,20 -5,16 10,15 58,-4 z m -384,111 c 29,-31 49,-45 68,-45 h 26 V 360 220 h 45 45 v 140 c 0,133 1,140 20,140 11,0 40,20 64,45 l 45,45 h -177 -178 z m -231,29 c -45,-23 -66,-45 -86,-89 -36,-78 -13,-176 51,-224 28,-20 112,-41 168,-41 21,0 22,4 22,70 v 70 h -39 c -34,0 -38,-3 -34,-20 8,-29 -28,-26 -63,4 -42,35 -39,89 5,128 28,25 39,29 70,24 21,-3 45,-16 59,-31 20,-24 22,-36 22,-136 V 220 h 45 45 v 120 c 0,85 -4,129 -14,148 -19,36 -65,78 -99,91 -41,16 -117,13 -152,-5 z m -481,-18 c -26,-26 -34,-42 -34,-70 0,-84 50,-126 150,-126 46,0 62,-4 67,-16 10,-26 -16,-34 -114,-34 h -93 v -46 -46 l 119,4 c 117,3 121,4 150,32 38,37 48,81 28,129 -20,47 -61,67 -135,67 -40,0 -64,5 -72,15 -23,27 0,35 101,35 h 99 v 45 45 H 2124 2008 Z M 1830,405 V 220 h 45 45 v 185 185 h -45 -45 z m -317,143 -43,-44 V 362 220 h 45 45 v 70 70 h 80 80 v -70 -70 h 45 45 v 185 185 h -45 -45 v -70 -70 h -80 -79 l -3,70 -3,71 z m -425,13 c -70,-45 -88,-91 -88,-229 V 220 h 44 44 l 4,111 3,111 33,29 c 29,26 39,29 102,29 h 70 V 360 220 h 45 45 v 140 140 h 28 c 20,0 41,13 72,45 l 44,45 h -200 -200 z m -383,5 c -120,-72 -117,-258 5,-321 14,-7 53,-16 88,-20 l 62,-7 v 46 c 0,45 -1,46 -30,46 -106,0 -158,93 -91,161 39,39 80,39 123,0 33,-29 33,-29 36,-140 l 4,-111 h 45 45 l -3,123 c -4,115 -6,126 -32,165 -53,81 -169,108 -252,58 z M 10,405 V 220 h 45 45 v 70 70 h 85 85 v -70 -70 h 45 45 v 185 185 h -45 -44 l -3,-67 -3,-68 h -80 -80 l -3,68 -3,67 H 55 10 Z m 418,177 c -38,-23 -62,-76 -53,-116 6,-32 7,-40 2,-126 -2,-44 2,-53 31,-82 l 32,-33 125,-3 125,-4 -49,51 c -49,50 -51,51 -110,51 -54,0 -61,2 -61,20 0,16 8,19 58,22 l 57,3 v 45 45 l -55,5 c -47,4 -55,8 -55,25 0,18 8,20 64,23 61,3 66,5 107,48 l 43,44 H 572 c -92,0 -123,-4 -144,-18 z" />
  </g>
</svg>
