<?xml version="1.0" encoding="UTF-8" standalone="no"?>
<svg
   xmlns:dc="http://purl.org/dc/elements/1.1/"
   xmlns:cc="http://creativecommons.org/ns#"
   xmlns:rdf="http://www.w3.org/1999/02/22-rdf-syntax-ns#"
   xmlns:svg="http://www.w3.org/2000/svg"
   xmlns="http://www.w3.org/2000/svg"
   xmlns:sodipodi="http://sodipodi.sourceforge.net/DTD/sodipodi-0.dtd"
   xmlns:inkscape="http://www.inkscape.org/namespaces/inkscape"
   width="2845.2512"
   height="1364.2965"
   viewBox="0 0 54.760596 54.760603"
   version="1.1"
   id="svg18"
   inkscape:version="1.0.2-2 (e86c870879, 2021-01-15)"
   sodipodi:docname="RA1.svg">
  <title
     id="title50">ra_logo</title>
  <defs
     id="defs12" />
  <sodipodi:namedview
     id="base"
     pagecolor="#ffffff"
     bordercolor="#666666"
     borderopacity="1.0"
     inkscape:pageopacity="0.0"
     inkscape:pageshadow="2"
     inkscape:zoom="0.35"
     inkscape:cx="1368.9416"
     inkscape:cy="537.53369"
     inkscape:document-units="mm"
     inkscape:current-layer="layer1"
     inkscape:document-rotation="0"
     showgrid="false"
     lock-margins="true"
     units="px"
     inkscape:window-width="1920"
     inkscape:window-height="1017"
     inkscape:window-x="-8"
     inkscape:window-y="-8"
     inkscape:window-maximized="1" />
  <metadata
     id="metadata15">
    <rdf:RDF>
      <cc:Work
         rdf:about="">
        <dc:format>image/svg+xml</dc:format>
        <dc:type
           rdf:resource="http://purl.org/dc/dcmitype/StillImage" />
        <dc:title>ra_logo</dc:title>
      </cc:Work>
    </rdf:RDF>
  </metadata>
  <g
     inkscape:label="Ebene 1"
     inkscape:groupmode="layer"
     id="layer1"
     transform="translate(56.227781,37.301596)">
    <g
       transform="matrix(0.01221111,0,0,-0.01221111,-85.94932,17.459005)"
       id="g12">
      <path
         id="path18"
         style="fill:#040606;fill-opacity:1;fill-rule:nonzero;stroke:none"
         d="m 7162.62,4174.15 h 95.32 c 36.72,0 56.76,18.17 56.76,53 0,42.29 -27.5,50.7 -57.66,50.7 h -94.42 z m -58.16,151.11 h 158.52 c 72.62,0 109.77,-33.5 109.77,-89.77 0,-63.66 -44.14,-79.93 -54.88,-83.66 v -0.92 c 20.04,-2.81 49.3,-17.68 49.3,-70.24 0,-38.6 5.58,-73.95 18.13,-87.37 h -62.28 c -8.83,14.38 -8.83,32.47 -8.83,48.77 0,60.93 -12.57,87.9 -66.09,87.9 h -85.48 V 3993.3 h -58.16 v 331.96 m 410.1,-169.05 c 0,-159.5 -125.69,-292.65 -288.84,-292.65 -165.09,0 -288.84,131.31 -288.84,290.88 v 1.77 c 0,159.45 125.63,292.6 288.84,292.6 165.02,0 288.84,-131.26 288.84,-290.73 z m -288.84,328.28 c -181.88,0 -326.5,-150.11 -326.5,-328.28 v -1.77 c 0,-178.31 142.68,-326.52 326.5,-326.52 182.03,0 326.36,150.08 326.36,328.29 v 1.87 c 0,178.28 -142.42,326.41 -326.36,326.41 M 9250.08,894.852 c 62.74,59.75 102.36,143.478 102.36,236.928 0,89.94 -42.8,170.78 -101.41,229.97 L 6610.4,4002.38 5813.38,3205.36 7892.39,1126.35 H 4946.88 c -143.99,4.31 -258.1,52.62 -354.65,146.19 L 3270.56,2594.21 c -137.05,129.6 -324.79,211.6 -528.34,211.6 -0.72,0 -1.39,-0.1 -2.01,-0.1 v 0.1 H 1127.2 v 551.52 h 1670.56 v -0.11 c 330.99,-0.16 626.31,-135.63 842.78,-353.03 l 985.84,-985.83 797.02,797.02 -1005,1005 c -420.08,413.68 -987.4,664.11 -1623.49,664.11 -0.67,0 -1.38,-0.04 -2.06,-0.04 v 0.04 H 0 V 1678.66 h 2363.79 v -0.18 c 153.74,-1.1 292.54,-64.33 392.76,-165.88 L 4050.96,218.152 C 4182.62,88.8516 4360.51,7.33984 4557.76,0 h 3575.7 c 150.53,1.98047 286.48,63.6094 385.7,162.539 l 731.47,731.402 -0.55,0.911" />
    </g>
  </g>
</svg>
